<svg role="img" viewBox="0 0 24 24" xmlns="http://www.w3.org/2000/svg"><title>DuckLake</title><path d="M12 0c6.627 0 12 5.373 12 12s-5.373 12-12 12S0 18.627 0 12 5.373 0 12 0Zm-1.336 6C7.39 6 4.745 8.673 4.745 11.945a5.928 5.928 0 0 0 5.619 5.919h.545a5.888 5.888 0 0 0 5.155-3.464h.79a2.764 2.764 0 0 0 2.755-2.755c0-1.527-1.254-2.727-2.754-2.727h-1.091A5.879 5.879 0 0 0 10.664 6Zm0 1.8c1.663 0 3.081.982 3.736 2.4l.245.518h2.21c.518 0 .927.437.927.927 0 .491-.437.928-.927.928h-2.073l-.191.627c-.546 1.636-1.664 2.836-3.927 2.836a4.115 4.115 0 0 1-4.119-4.118A4.132 4.132 0 0 1 10.664 7.8Z"/></svg>